<svg width="25" height="24" viewBox="0 0 25 24" fill="none" xmlns="http://www.w3.org/2000/svg">
<path d="M16.9001 3V7M8.90015 3V7M4.90015 11H20.9001M4.90015 7C4.90015 6.46957 5.11086 5.96086 5.48593 5.58579C5.86101 5.21071 6.36971 5 6.90015 5H18.9001C19.4306 5 19.9393 5.21071 20.3144 5.58579C20.6894 5.96086 20.9001 6.46957 20.9001 7V19C20.9001 19.5304 20.6894 20.0391 20.3144 20.4142C19.9393 20.7893 19.4306 21 18.9001 21H6.90015C6.36971 21 5.86101 20.7893 5.48593 20.4142C5.11086 20.0391 4.90015 19.5304 4.90015 19V7Z" stroke="#4196FD" stroke-width="2" stroke-linecap="round" stroke-linejoin="round"/>
<path d="M16.9001 3V7M8.90015 3V7M4.90015 11H20.9001M4.90015 7C4.90015 6.46957 5.11086 5.96086 5.48593 5.58579C5.86101 5.21071 6.36971 5 6.90015 5H18.9001C19.4306 5 19.9393 5.21071 20.3144 5.58579C20.6894 5.96086 20.9001 6.46957 20.9001 7V19C20.9001 19.5304 20.6894 20.0391 20.3144 20.4142C19.9393 20.7893 19.4306 21 18.9001 21H6.90015C6.36971 21 5.86101 20.7893 5.48593 20.4142C5.11086 20.0391 4.90015 19.5304 4.90015 19V7Z" stroke="#4196FD" stroke-width="2" stroke-linecap="round" stroke-linejoin="round"/>
<rect x="5.00024" y="5" width="16" height="6" fill="#4196FD"/>
</svg>
