<svg width="34" height="25" viewBox="0 0 34 25" fill="none" xmlns="http://www.w3.org/2000/svg">
<g id="Group">
<g id="Group_2">
<path id="Vector" d="M19.0208 11.3937C19.0208 12.7586 17.122 14.5078 15.0668 14.5078C13.0115 14.5078 11.3435 12.7586 11.3435 11.3937C11.3435 10.0288 13.0105 8.92139 15.0668 8.92139C17.123 8.92139 19.0208 10.0278 19.0208 11.3937Z" fill="#D1D6DB"/>
<g id="Group_3">
<path id="Vector_2" d="M16.7665 10.5014C16.6932 10.5955 16.6199 10.6976 16.605 10.8154C16.5872 10.9531 16.6506 11.0868 16.712 11.2106C16.9765 11.7485 17.2598 12.3081 17.7441 12.6607C18.4692 13.1877 19.5488 13.0975 20.2372 12.524C20.3045 12.4686 20.3699 12.4062 20.4016 12.3249C20.4462 12.214 20.4194 12.0892 20.4175 11.9693C20.4125 11.6375 20.5987 11.3295 20.6304 10.9997C20.7106 10.1597 19.8935 9.27025 19.115 9.13852C18.2017 8.984 17.3004 9.82097 16.7655 10.5004L16.7665 10.5014Z" fill="#D1D6DB"/>
<path id="Vector_3" d="M18.9614 8.73128C18.9416 8.64709 18.9168 8.56091 18.8564 8.4995C18.786 8.42819 18.683 8.40343 18.585 8.38164C18.162 8.28952 17.7193 8.1974 17.3023 8.31329C16.6793 8.48663 16.2454 9.13639 16.2593 9.78318C16.2603 9.84558 16.2662 9.91096 16.2979 9.96543C16.3405 10.0407 16.4227 10.0813 16.4911 10.1338C16.6812 10.2804 16.7714 10.5231 16.9437 10.6895C17.3825 11.1124 18.2522 11.05 18.6761 10.6697C19.1743 10.223 19.106 9.33845 18.9624 8.73029L18.9614 8.73128Z" fill="#D1D6DB"/>
<path id="Vector_4" d="M14.2348 7.95972C14.1338 8.02509 14.0307 8.09938 13.9773 8.20734C13.9149 8.33314 13.9317 8.48171 13.9495 8.62038C14.0258 9.22161 14.112 9.85057 14.4596 10.3468C14.9796 11.0897 16.0415 11.3581 16.8883 11.0372C16.9705 11.0055 17.0537 10.9678 17.1112 10.9015C17.1894 10.8094 17.2063 10.6816 17.2429 10.5677C17.3469 10.2488 17.6262 10.016 17.7659 9.70992C18.1195 8.93338 17.6302 7.81313 16.9299 7.4308C16.1068 6.9821 14.9707 7.48626 14.2348 7.95972Z" fill="#D1D6DB"/>
<path id="Vector_5" d="M13.7861 7.10395C13.6692 7.08315 13.5454 7.0673 13.4345 7.10989C13.3057 7.15942 13.2175 7.27729 13.1373 7.38921C12.7887 7.87455 12.4301 8.38565 12.3489 8.97697C12.227 9.86148 12.8124 10.7668 13.6395 11.1026C13.7197 11.1353 13.8059 11.164 13.8921 11.1541C14.0099 11.1402 14.107 11.059 14.211 11.0015C14.5002 10.8411 14.8578 10.8599 15.1629 10.7331C15.9384 10.4092 16.3356 9.27412 16.086 8.52828C15.7928 7.65268 14.6349 7.2555 13.7861 7.10395Z" fill="#D1D6DB"/>
<path id="Vector_6" d="M14.0614 8.17849C14.0198 8.06557 13.9703 7.9487 13.8762 7.87342C13.7673 7.78526 13.6187 7.76843 13.479 7.75555C12.8748 7.6981 12.2429 7.6456 11.6823 7.87639C10.8443 8.22207 10.3491 9.1987 10.4778 10.0961C10.4907 10.1832 10.5095 10.2734 10.562 10.3437C10.6343 10.4408 10.7552 10.4844 10.8592 10.5458C11.1484 10.7171 11.3138 11.041 11.5822 11.2431C12.2637 11.7581 13.4622 11.5254 13.9891 10.9241C14.6072 10.2189 14.3635 8.99961 14.0614 8.17849Z" fill="#D1D6DB"/>
<path id="Vector_7" d="M13.2393 8.96204C13.164 8.82436 13.0788 8.6847 12.9441 8.60546C12.7876 8.51334 12.5935 8.52028 12.4122 8.53018C11.6268 8.57178 10.8057 8.62329 10.1311 9.02642C9.12181 9.62864 8.67312 10.9767 9.0089 12.1029C9.04158 12.2128 9.08318 12.3238 9.16341 12.404C9.27435 12.5149 9.43877 12.5476 9.58338 12.6071C9.98651 12.7725 10.2609 13.1558 10.6432 13.3648C11.6149 13.8957 13.1086 13.3687 13.6702 12.4981C14.3288 11.4759 13.7841 9.95847 13.2403 8.96204H13.2393Z" fill="#D1D6DB"/>
<path id="Vector_8" d="M9.85284 11.8147C9.75874 11.9088 9.66464 12.0138 9.63295 12.1436C9.59531 12.2941 9.64879 12.4506 9.7003 12.5972C9.92514 13.2291 10.1668 13.8888 10.6601 14.3434C11.398 15.0229 12.6094 15.0625 13.4493 14.5148C13.5305 14.4613 13.6118 14.4009 13.6583 14.3147C13.7217 14.1968 13.7088 14.0552 13.7217 13.9225C13.7584 13.552 14.006 13.2351 14.0842 12.8716C14.2823 11.9484 13.4889 10.8539 12.6411 10.6063C11.6456 10.3161 10.5363 11.1293 9.85284 11.8167V11.8147Z" fill="#D1D6DB"/>
<path id="Vector_9" d="M11.8081 12.2921C11.6961 12.3377 11.5802 12.3912 11.507 12.4882C11.4218 12.6012 11.4099 12.7507 11.401 12.8914C11.3633 13.4995 11.3297 14.1364 11.5793 14.6931C11.9527 15.5241 12.9511 15.9896 13.8485 15.8321C13.9356 15.8173 14.0248 15.7945 14.0941 15.74C14.1892 15.6648 14.2288 15.5409 14.2873 15.435C14.4507 15.1388 14.7696 14.9625 14.9648 14.6861C15.46 13.9849 15.1876 12.7874 14.5676 12.2783C13.8396 11.68 12.6222 11.9643 11.8061 12.2941L11.8081 12.2921Z" fill="#D1D6DB"/>
<path id="Vector_10" d="M12.6837 14.3661C12.6272 14.484 12.5747 14.6117 12.5866 14.7415C12.6015 14.893 12.7005 15.0208 12.7966 15.1397C13.2106 15.6518 13.6484 16.1837 14.2536 16.4442C15.1579 16.8334 16.293 16.4758 16.8923 15.6943C16.9507 15.6181 17.0062 15.5359 17.021 15.4408C17.0418 15.311 16.9834 15.1842 16.9527 15.0565C16.8665 14.7019 16.9923 14.3275 16.9458 13.9659C16.8289 13.0458 15.7374 12.291 14.8717 12.3386C13.8554 12.394 13.0927 13.5083 12.6837 14.3671V14.3661Z" fill="#D1D6DB"/>
<path id="Vector_11" d="M17.2598 12.4524C17.1974 12.39 17.128 12.3286 17.0428 12.3078C16.9428 12.283 16.8398 12.3187 16.7437 12.3534C16.3267 12.5029 15.8909 12.6634 15.5918 12.9912C15.1441 13.4796 15.1203 14.2809 15.4838 14.8346C15.5195 14.888 15.5591 14.9415 15.6165 14.9722C15.6948 15.0138 15.7879 15.0049 15.876 15.0138C16.1207 15.0376 16.3307 15.2 16.5714 15.2516C17.1825 15.3813 17.9036 14.8544 18.066 14.2937C18.2562 13.6351 17.7164 12.9041 17.2617 12.4534L17.2598 12.4524Z" fill="#D1D6DB"/>
<path id="Vector_12" d="M16.3287 12.4744C16.2643 12.5576 16.2019 12.6477 16.189 12.7517C16.1741 12.8726 16.2306 12.9894 16.2851 13.0984C16.5208 13.5689 16.7734 14.0582 17.2013 14.3642C17.8411 14.8219 18.7881 14.7357 19.3893 14.2276C19.4477 14.178 19.5052 14.1226 19.5329 14.0513C19.5705 13.9532 19.5468 13.8442 19.5448 13.7392C19.5379 13.448 19.6993 13.1766 19.7251 12.8864C19.7904 12.1485 19.0664 11.373 18.3819 11.262C17.5787 11.1323 16.7942 11.8732 16.3287 12.4744Z" fill="#D1D6DB"/>
<path id="Vector_13" d="M17.7609 10.0326C17.6619 10.0683 17.5608 10.1118 17.4945 10.1941C17.4172 10.2891 17.4034 10.4189 17.3915 10.5397C17.341 11.0657 17.2934 11.6164 17.4935 12.1057C17.7936 12.8367 18.6444 13.2695 19.4269 13.1586C19.5032 13.1477 19.5814 13.1319 19.6429 13.0853C19.7271 13.0229 19.7657 12.9169 19.8192 12.8268C19.9687 12.5752 20.251 12.4316 20.4283 12.1978C20.878 11.6045 20.6769 10.5596 20.154 10.099C19.5408 9.55915 18.477 9.77013 17.7599 10.0316L17.7609 10.0326Z" fill="#D1D6DB"/>
</g>
</g>
<path id="Vector_14" d="M0.316341 18.9581C5.88391 25.7579 16.4178 25.7767 23.6979 22.0306C28.5236 19.5475 34.6439 13.236 33.1601 7.17619C32.7619 5.54881 30.2491 6.23819 30.6482 7.86855C31.8319 12.7031 26.0434 17.9032 22.3826 19.7812C16.0484 23.031 6.98038 23.0063 2.15767 17.1158C1.09487 15.8182 -0.738535 17.6705 0.316341 18.9571V18.9581Z" fill="#D1D6DB"/>
<path id="Vector_15" d="M7.88869 1.92948C7.88869 0.863858 7.02483 0 5.95921 0C4.89358 0 4.02972 0.863858 4.02972 1.92948V4.36312C4.02972 5.42875 4.89358 6.29261 5.95921 6.29261C7.02483 6.29261 7.88869 5.42875 7.88869 4.36312V1.92948Z" fill="#D1D6DB"/>
<path id="Vector_16" d="M23.3859 1.92948C23.3859 0.863858 22.5221 0 21.4565 0C20.3908 0 19.527 0.863858 19.527 1.92948V4.36312C19.527 5.42875 20.3908 6.29261 21.4565 6.29261C22.5221 6.29261 23.3859 5.42875 23.3859 4.36312V1.92948Z" fill="#D1D6DB"/>
</g>
</svg>
