<svg width="24" height="25" viewBox="0 0 24 25" fill="none" xmlns="http://www.w3.org/2000/svg">
<path d="M10.7883 1.42333C11.4637 0.769299 12.5363 0.769299 13.2117 1.42333L13.8571 2.04828C14.2898 2.46729 14.9083 2.633 15.4925 2.48649L16.364 2.26797C17.2759 2.03928 18.2048 2.57557 18.4627 3.47969L18.7092 4.34362C18.8744 4.92284 19.3272 5.37559 19.9064 5.54083L20.7703 5.78728C21.6744 6.04521 22.2107 6.97409 21.982 7.88605L21.7635 8.75746C21.617 9.3417 21.7827 9.96017 22.2017 10.3929L22.8267 11.0383C23.4807 11.7137 23.4807 12.7863 22.8267 13.4617L22.2017 14.1071C21.7827 14.5398 21.617 15.1583 21.7635 15.7425L21.982 16.614C22.2107 17.5259 21.6744 18.4548 20.7703 18.7127L19.9064 18.9592C19.3272 19.1244 18.8744 19.5772 18.7092 20.1564L18.4627 21.0203C18.2048 21.9244 17.2759 22.4607 16.364 22.232L15.4925 22.0135C14.9083 21.867 14.2898 22.0327 13.8571 22.4517L13.2117 23.0767C12.5363 23.7307 11.4637 23.7307 10.7883 23.0767L10.1429 22.4517C9.71017 22.0327 9.0917 21.867 8.50746 22.0135L7.63605 22.232C6.72409 22.4607 5.79521 21.9244 5.53728 21.0203L5.29083 20.1564C5.12559 19.5772 4.67284 19.1244 4.09362 18.9592L3.22969 18.7127C2.32557 18.4548 1.78928 17.5259 2.01797 16.614L2.23649 15.7425C2.383 15.1583 2.21729 14.5398 1.79828 14.1071L1.17333 13.4617C0.519299 12.7863 0.519299 11.7137 1.17333 11.0383L1.79828 10.3929C2.21729 9.96017 2.383 9.3417 2.23649 8.75746L2.01797 7.88605C1.78928 6.97409 2.32557 6.04521 3.22969 5.78728L4.09362 5.54083C4.67284 5.37559 5.12559 4.92284 5.29083 4.34362L5.53728 3.47969C5.79521 2.57557 6.72409 2.03928 7.63605 2.26797L8.50746 2.48649C9.0917 2.633 9.71017 2.46729 10.1429 2.04828L10.7883 1.42333Z" fill="#4196FD"/>
<path d="M8.52957 12.1109C8.451 12.0252 8.41171 11.9234 8.41171 11.8055C8.41171 11.6877 8.451 11.5859 8.52957 11.5002L9.72957 10.3002L9.26886 9.83944L9.14028 9.96801C9.05457 10.0537 8.95278 10.0966 8.83493 10.0966C8.71707 10.0966 8.61528 10.0537 8.52957 9.96801C8.451 9.8823 8.41171 9.78051 8.41171 9.66265C8.41171 9.5448 8.451 9.44658 8.52957 9.36801L9.38671 8.51087C9.47243 8.42515 9.57421 8.3823 9.69207 8.3823C9.80993 8.3823 9.91171 8.42515 9.99743 8.51087C10.0831 8.58944 10.126 8.68944 10.126 8.81087C10.126 8.9323 10.0831 9.0323 9.99743 9.11087L9.86886 9.23944L10.3296 9.70015L11.5296 8.50015C11.6153 8.41444 11.7171 8.37158 11.8349 8.37158C11.9528 8.37158 12.0546 8.41444 12.1403 8.50015C12.226 8.58587 12.2689 8.68765 12.2689 8.80551C12.2689 8.92337 12.226 9.02515 12.1403 9.11087L11.851 9.38944L12.5153 10.0537L11.3046 11.2537C11.226 11.3394 11.1867 11.4412 11.1867 11.5591C11.1867 11.6769 11.226 11.7787 11.3046 11.8644C11.3903 11.9502 11.4921 11.993 11.6099 11.993C11.7278 11.993 11.8296 11.9502 11.9153 11.8644L13.1153 10.6537L13.7689 11.2966L12.5581 12.5073C12.4724 12.593 12.4296 12.6948 12.4296 12.8127C12.4296 12.9305 12.4724 13.0323 12.5581 13.118C12.6367 13.1966 12.7349 13.2341 12.8528 13.2305C12.9706 13.2269 13.0724 13.1859 13.1581 13.1073L14.3581 11.8966L15.0117 12.5502C15.176 12.7144 15.2581 12.9162 15.2581 13.1555C15.2581 13.3948 15.176 13.5966 15.0117 13.7609L14.7117 14.0716L16.3724 15.7216C16.4439 15.793 16.4617 15.8716 16.426 15.9573C16.3903 16.043 16.3224 16.0859 16.2224 16.0859H15.7831C15.6974 16.0859 15.6135 16.068 15.5314 16.0323C15.4492 15.9966 15.3796 15.9502 15.3224 15.893L14.101 14.6716L13.801 14.9823C13.6367 15.1466 13.4349 15.2287 13.1956 15.2287C12.9564 15.2287 12.7546 15.1466 12.5903 14.9823L9.42957 11.8216L9.14028 12.1109C9.05457 12.1894 8.95278 12.2287 8.83493 12.2287C8.71707 12.2287 8.61528 12.1894 8.52957 12.1109Z" fill="white"/>
</svg>
