<svg width="64" height="65" viewBox="0 0 64 65" fill="none" xmlns="http://www.w3.org/2000/svg">
<g clip-path="url(#clip0_2502_4268)">
<path d="M47.0031 39.4344H53.1906C53.7163 39.4344 54.1425 39.8606 54.1425 40.3864V50.1436C54.1425 52.7723 52.0116 54.9032 49.3829 54.9032H47.0031V39.4344Z" fill="#D1D6DB"/>
<path d="M4.16673 3.73722C4.16673 2.68576 5.01911 1.83337 6.07057 1.83337H45.0993C46.1508 1.83337 47.0032 2.68575 47.0032 3.73722V54.9031H6.07058C5.01911 54.9031 4.16673 54.0507 4.16673 52.9993V3.73722Z" fill="#E5E8EB"/>
<path fill-rule="evenodd" clip-rule="evenodd" d="M47.0057 52.0083H47.0031V52.129V54.903H49.7153C48.2152 54.8896 47.0031 53.6528 47.0031 52.129C47.0031 52.0886 47.004 52.0483 47.0057 52.0083ZM49.7645 54.903C49.7961 54.9027 49.8275 54.9019 49.8589 54.9005V54.903H49.7645Z" fill="#E5E8EB"/>
<rect x="8.5" y="20.4364" width="18.2947" height="2.67729" rx="1.33864" transform="rotate(-45 8.5 20.4364)" fill="white"/>
<rect width="18.2947" height="2.67729" rx="1.33864" transform="matrix(-0.707107 -0.707107 -0.707107 0.707107 23.5 20.4364)" fill="white"/>
<path d="M43.5031 45.5398L45.2879 42.4483L58.4781 50.0637L56.6933 53.1552L43.5031 45.5398Z" fill="#6B7684"/>
<path d="M50.7717 50.5606C50.4302 50.3634 50.3132 49.9268 50.5103 49.5853L52.2952 46.4939C52.4923 46.1524 52.929 46.0354 53.2705 46.2325L61.4113 50.9327C62.6064 51.6227 63.0159 53.1509 62.3259 54.3461C61.6359 55.5412 60.1076 55.9507 58.9125 55.2607L50.7717 50.5606Z" fill="#4196FD"/>
<path d="M42.2955 28.3547C48.2713 31.8048 50.3187 39.446 46.8686 45.4218C43.4185 51.3976 35.7773 53.445 29.8016 49.9949C23.8258 46.5448 21.7783 38.9036 25.2285 32.9278C28.6786 26.952 36.3198 24.9046 42.2955 28.3547Z" fill="white" fill-opacity="0.7"/>
<path fill-rule="evenodd" clip-rule="evenodd" d="M43.5711 43.518C45.9697 39.3634 44.5463 34.0509 40.3917 31.6522C36.2371 29.2536 30.9247 30.677 28.526 34.8317C26.1274 38.9863 27.5508 44.2987 31.7054 46.6974C35.86 49.096 41.1724 47.6726 43.5711 43.518ZM46.8686 45.4218C50.3187 39.446 48.2713 31.8048 42.2955 28.3547C36.3198 24.9046 28.6786 26.952 25.2285 32.9278C21.7783 38.9036 23.8258 46.5448 29.8016 49.9949C35.7773 53.445 43.4185 51.3976 46.8686 45.4218Z" fill="#8B95A1"/>
</g>
<defs>
<clipPath id="clip0_2502_4268">
<rect width="60" height="60" fill="white" transform="translate(3.5 4.5)"/>
</clipPath>
</defs>
</svg>
