<svg width="30" height="30" viewBox="0 0 30 30" fill="none" xmlns="http://www.w3.org/2000/svg">
<path d="M14.6875 16.1414L16.046 14.7828L21.8424 20.5792L20.4838 21.9377L14.6875 16.1414Z" fill="#6B7684"/>
<path d="M17.7669 19.7641C17.6168 19.6141 17.6168 19.3708 17.7669 19.2207L19.1254 17.8622C19.2754 17.7122 19.5187 17.7122 19.6688 17.8622L23.2462 21.4396C23.7714 21.9648 23.7714 22.8164 23.2462 23.3416C22.721 23.8668 21.8695 23.8668 21.3443 23.3416L17.7669 19.7641Z" fill="#4196FD"/>
<path d="M16.4536 7.03914C19.0796 9.66515 19.0796 13.9228 16.4536 16.5488C13.8276 19.1748 9.57002 19.1748 6.94403 16.5488C4.31803 13.9227 4.31804 9.66514 6.94405 7.03914C9.57006 4.41313 13.8276 4.41313 16.4536 7.03914Z" fill="white" fill-opacity="0.7"/>
<path fill-rule="evenodd" clip-rule="evenodd" d="M15.0045 15.0997C16.8302 13.274 16.8303 10.3139 15.0046 8.48823C13.1789 6.66253 10.2188 6.66252 8.39313 8.48822C6.56742 10.3139 6.56742 13.274 8.39311 15.0997C10.2188 16.9254 13.1788 16.9254 15.0045 15.0997ZM16.4536 16.5488C19.0796 13.9228 19.0796 9.66515 16.4536 7.03914C13.8276 4.41313 9.57006 4.41313 6.94405 7.03914C4.31804 9.66515 4.31803 13.9227 6.94403 16.5488C9.57002 19.1748 13.8276 19.1748 16.4536 16.5488Z" fill="#8B95A1"/>
</svg>
