<svg width="24" height="25" viewBox="0 0 24 25" fill="none" xmlns="http://www.w3.org/2000/svg">
<path d="M11.998 2.75L12.116 2.757L12.175 2.765L12.236 2.778L12.347 2.812C12.4237 2.84026 12.4966 2.87788 12.564 2.924L12.668 3.006L12.923 3.224C14.9403 4.89956 17.4899 5.7993 20.112 5.761L20.454 5.751C20.6776 5.7408 20.8982 5.80591 21.0804 5.9359C21.2626 6.06589 21.3959 6.25326 21.459 6.468C21.9504 8.13958 22.1008 9.89288 21.9012 11.6237C21.7016 13.3546 21.1561 15.0276 20.2972 16.5435C19.4382 18.0593 18.2833 19.3871 16.9011 20.4478C15.5188 21.5085 13.9375 22.2805 12.251 22.718C12.0864 22.7607 11.9136 22.7607 11.749 22.718C10.0624 22.2806 8.48099 21.5087 7.09865 20.448C5.71631 19.3874 4.5613 18.0596 3.70224 16.5438C2.84318 15.0279 2.29762 13.3548 2.09796 11.6239C1.8983 9.89301 2.04863 8.13964 2.54002 6.468C2.60313 6.25326 2.73646 6.06589 2.91866 5.9359C3.10087 5.80591 3.32142 5.7408 3.54502 5.751C6.28248 5.87613 8.96808 4.97499 11.076 3.224L11.339 2.999L11.435 2.924C11.5025 2.87788 11.5754 2.84026 11.652 2.812L11.764 2.778C11.8032 2.76853 11.843 2.76152 11.883 2.757L11.998 2.75ZM15.708 10.043C15.6151 9.95002 15.5049 9.87626 15.3835 9.82594C15.2621 9.77562 15.1319 9.74971 15.0005 9.74971C14.8691 9.74971 14.739 9.77562 14.6176 9.82594C14.4962 9.87626 14.3859 9.95002 14.293 10.043L11 13.335L9.70702 12.043L9.61302 11.96C9.41202 11.8046 9.15941 11.7315 8.90649 11.7556C8.65357 11.7797 8.4193 11.8992 8.25126 12.0897C8.08323 12.2803 7.99403 12.5277 8.00179 12.7816C8.00954 13.0356 8.11367 13.277 8.29302 13.457L10.293 15.457L10.387 15.54C10.5794 15.6893 10.8197 15.7632 11.0627 15.7479C11.3057 15.7326 11.5348 15.6292 11.707 15.457L15.707 11.457L15.79 11.363C15.9393 11.1706 16.0132 10.9303 15.9979 10.6873C15.9826 10.4443 15.8792 10.2152 15.707 10.043H15.708Z" fill="#86D37F"/>
</svg>
