<svg width="48" height="48" viewBox="0 0 48 48" fill="none" xmlns="http://www.w3.org/2000/svg">
<path id="Star 3" d="M21.4756 1.44444C22.8827 0.0818732 25.1173 0.0818731 26.5244 1.44444L27.869 2.74643C28.7705 3.61935 30.059 3.96459 31.2761 3.65936L33.0916 3.2041C34.9915 2.72766 36.9266 3.84493 37.464 5.72853L37.9774 7.52837C38.3217 8.73508 39.2649 9.67831 40.4716 10.0226L42.2715 10.536C44.1551 11.0734 45.2723 13.0085 44.7959 14.9084L44.3406 16.7239C44.0354 17.941 44.3807 19.2295 45.2536 20.131L46.5556 21.4756C47.9181 22.8827 47.9181 25.1173 46.5556 26.5244L45.2536 27.869C44.3807 28.7705 44.0354 30.059 44.3406 31.2761L44.7959 33.0916C45.2723 34.9915 44.1551 36.9266 42.2715 37.464L40.4716 37.9774C39.2649 38.3217 38.3217 39.2649 37.9774 40.4716L37.464 42.2715C36.9266 44.1551 34.9915 45.2723 33.0916 44.7959L31.2761 44.3406C30.059 44.0354 28.7705 44.3807 27.869 45.2536L26.5244 46.5556C25.1173 47.9181 22.8827 47.9181 21.4756 46.5556L20.131 45.2536C19.2295 44.3807 17.941 44.0354 16.7239 44.3406L14.9084 44.7959C13.0085 45.2723 11.0734 44.1551 10.536 42.2715L10.0226 40.4716C9.67831 39.2649 8.73508 38.3217 7.52837 37.9774L5.72853 37.464C3.84493 36.9266 2.72766 34.9915 3.2041 33.0916L3.65936 31.2761C3.96459 30.059 3.61935 28.7705 2.74643 27.869L1.44444 26.5244C0.0818732 25.1173 0.0818731 22.8827 1.44444 21.4756L2.74643 20.131C3.61935 19.2295 3.96459 17.941 3.65936 16.7239L3.2041 14.9084C2.72766 13.0085 3.84493 11.0734 5.72853 10.536L7.52837 10.0226C8.73508 9.67831 9.67831 8.73508 10.0226 7.52837L10.536 5.72853C11.0734 3.84493 13.0085 2.72766 14.9084 3.2041L16.7239 3.65936C17.941 3.96459 19.2295 3.61935 20.131 2.74643L21.4756 1.44444Z" fill="#4196FD"/>
</svg>
