<svg width="24" height="24" viewBox="0 0 24 24" fill="none" xmlns="http://www.w3.org/2000/svg">
<path fill-rule="evenodd" clip-rule="evenodd" d="M4 0C1.79086 0 0 1.79086 0 4V12V20C0 22.2091 1.79086 24 4 24H12H20C22.2091 24 24 22.2091 24 20V12V4C24 1.79086 22.2091 0 20 0H12H4ZM17.197 9.6137C17.4899 9.32081 17.4899 8.84594 17.197 8.55304C16.9041 8.26015 16.4292 8.26015 16.1363 8.55304L10.8333 13.856L8.447 11.4697C8.15411 11.1768 7.67923 11.1768 7.38634 11.4697C7.09345 11.7626 7.09345 12.2375 7.38634 12.5304L10.303 15.447C10.4437 15.5877 10.6344 15.6667 10.8333 15.6667C11.0323 15.6667 11.223 15.5877 11.3637 15.447L17.197 9.6137Z" fill="#4196FD"/>
</svg>
