<svg width="30" height="30" viewBox="0 0 30 30" fill="none" xmlns="http://www.w3.org/2000/svg">
<path d="M6.53825 14.0191C6.3426 13.8056 6.24478 13.5522 6.24478 13.2587C6.24478 12.9653 6.3426 12.7118 6.53825 12.4984L9.52624 9.51039L8.37906 8.36321L8.05892 8.68335C7.84549 8.89678 7.59205 9.00349 7.29858 9.00349C7.00512 9.00349 6.75167 8.89678 6.53825 8.68335C6.3426 8.46992 6.24478 8.21648 6.24478 7.92301C6.24478 7.62955 6.3426 7.385 6.53825 7.18935L8.67253 5.05507C8.88596 4.84164 9.1394 4.73493 9.43286 4.73493C9.72633 4.73493 9.97977 4.84164 10.1932 5.05507C10.4066 5.25072 10.5133 5.49971 10.5133 5.80207C10.5133 6.10443 10.4066 6.35343 10.1932 6.54907L9.87306 6.86921L11.0202 8.01639L14.0082 5.02839C14.2217 4.81497 14.4751 4.70825 14.7686 4.70825C15.062 4.70825 15.3155 4.81497 15.5289 5.02839C15.7423 5.24182 15.849 5.49527 15.849 5.78873C15.849 6.0822 15.7423 6.33564 15.5289 6.54907L14.8086 7.24271L16.4627 8.89678L13.448 11.8848C13.2523 12.0982 13.1545 12.3516 13.1545 12.6451C13.1545 12.9386 13.2523 13.192 13.448 13.4055C13.6614 13.6189 13.9149 13.7256 14.2083 13.7256C14.5018 13.7256 14.7552 13.6189 14.9687 13.4055L17.9567 10.3908L19.584 11.9915L16.5694 15.0062C16.3559 15.2196 16.2492 15.473 16.2492 15.7665C16.2492 16.06 16.3559 16.3134 16.5694 16.5268C16.765 16.7225 17.0096 16.8159 17.303 16.807C17.5965 16.7981 17.8499 16.6958 18.0634 16.5002L21.0514 13.4855L22.6788 15.1129C23.0878 15.5219 23.2924 16.0244 23.2924 16.6202C23.2924 17.216 23.0878 17.7185 22.6788 18.1275L21.9318 18.9012L26.0669 23.0097C26.2448 23.1876 26.2892 23.3832 26.2003 23.5966C26.1114 23.8101 25.9424 23.9168 25.6934 23.9168H24.5996C24.3862 23.9168 24.1772 23.8723 23.9727 23.7834C23.7681 23.6945 23.5947 23.5789 23.4524 23.4366L20.4111 20.3952L19.6641 21.1689C19.255 21.578 18.7526 21.7825 18.1567 21.7825C17.5609 21.7825 17.0585 21.578 16.6494 21.1689L8.77924 13.2987L8.05892 14.0191C7.84549 14.2147 7.59205 14.3125 7.29858 14.3125C7.00512 14.3125 6.75167 14.2147 6.53825 14.0191Z" fill="#8B95A1"/>
</svg>
