<svg width="22" height="23" viewBox="0 0 22 23" fill="none" xmlns="http://www.w3.org/2000/svg">
<g id="syringe_FILL1_wght400_GRAD0_opsz24 1">
<path id="Vector" d="M3.76952 10.7097C3.60583 10.5312 3.52399 10.3191 3.52399 10.0736C3.52399 9.82804 3.60583 9.61598 3.76952 9.43741L6.26952 6.93741L5.3097 5.97759L5.04184 6.24545C4.86327 6.42402 4.65122 6.51331 4.40568 6.51331C4.16015 6.51331 3.94809 6.42402 3.76952 6.24545C3.60583 6.06688 3.52399 5.85482 3.52399 5.60929C3.52399 5.36375 3.60583 5.15914 3.76952 4.99545L5.55524 3.20973C5.73381 3.03116 5.94586 2.94188 6.1914 2.94188C6.43693 2.94188 6.64899 3.03116 6.82756 3.20973C7.00613 3.37342 7.09542 3.58176 7.09542 3.83473C7.09542 4.08771 7.00613 4.29604 6.82756 4.45973L6.5597 4.72759L7.51952 5.68741L10.0195 3.18741C10.1981 3.00884 10.4101 2.91956 10.6557 2.91956C10.9012 2.91956 11.1133 3.00884 11.2918 3.18741C11.4704 3.36598 11.5597 3.57804 11.5597 3.82357C11.5597 4.06911 11.4704 4.28116 11.2918 4.45973L10.6892 5.04009L12.0731 6.42402L9.55077 8.92402C9.38708 9.10259 9.30524 9.31464 9.30524 9.56018C9.30524 9.80572 9.38708 10.0178 9.55077 10.1963C9.72934 10.3749 9.9414 10.4642 10.1869 10.4642C10.4325 10.4642 10.6445 10.3749 10.8231 10.1963L13.3231 7.67402L14.6847 9.0133L12.1624 11.5356C11.9838 11.7142 11.8945 11.9263 11.8945 12.1718C11.8945 12.4173 11.9838 12.6294 12.1624 12.8079C12.3261 12.9716 12.5307 13.0498 12.7762 13.0423C13.0218 13.0349 13.2338 12.9493 13.4124 12.7856L15.9124 10.2633L17.274 11.6249C17.6163 11.9672 17.7874 12.3876 17.7874 12.8861C17.7874 13.3846 17.6163 13.805 17.274 14.1472L16.649 14.7946L20.1088 18.2321C20.2576 18.3809 20.2948 18.5446 20.2204 18.7231C20.146 18.9017 20.0046 18.991 19.7963 18.991H18.8811C18.7026 18.991 18.5277 18.9538 18.3566 18.8794C18.1854 18.805 18.0404 18.7082 17.9213 18.5892L15.3767 16.0446L14.7517 16.6919C14.4094 17.0341 13.989 17.2053 13.4905 17.2053C12.992 17.2053 12.5716 17.0341 12.2293 16.6919L5.64452 10.1071L5.04184 10.7097C4.86327 10.8734 4.65122 10.9553 4.40568 10.9553C4.16015 10.9553 3.94809 10.8734 3.76952 10.7097Z" fill="white"/>
</g>
</svg>
