<svg width="19" height="14" viewBox="0 0 19 14" fill="none" xmlns="http://www.w3.org/2000/svg">
<path d="M10.4692 6.14272C10.4692 6.8786 9.44548 7.82167 8.33739 7.82167C7.2293 7.82167 6.33002 6.8786 6.33002 6.14272C6.33002 5.40685 7.22877 4.80981 8.33739 4.80981C9.44601 4.80981 10.4692 5.40631 10.4692 6.14272Z" fill="#E5E8EB"/>
<path d="M9.25379 5.66161C9.21428 5.71234 9.17476 5.76734 9.16675 5.83089C9.15714 5.90512 9.19131 5.97721 9.22442 6.04397C9.367 6.33394 9.51973 6.63566 9.78087 6.82577C10.1718 7.10986 10.7538 7.06127 11.125 6.75207C11.1613 6.72217 11.1965 6.68852 11.2136 6.64473C11.2377 6.58492 11.2232 6.51764 11.2222 6.45302C11.2195 6.27413 11.3199 6.10805 11.337 5.93022C11.3803 5.47737 10.9397 4.99782 10.5199 4.9268C10.0276 4.84349 9.54163 5.29474 9.25326 5.66107L9.25379 5.66161Z" fill="#E5E8EB"/>
<path d="M10.4371 4.70724C10.4265 4.66185 10.4131 4.61539 10.3805 4.58228C10.3426 4.54384 10.2871 4.53049 10.2342 4.51874C10.0062 4.46907 9.76748 4.41941 9.54266 4.48189C9.20676 4.57534 8.97286 4.92566 8.98034 5.27437C8.98087 5.30801 8.98408 5.34326 9.00116 5.37263C9.02413 5.41322 9.06845 5.43511 9.1053 5.46341C9.20783 5.54245 9.25643 5.67328 9.34934 5.763C9.58591 5.99102 10.0548 5.95738 10.2833 5.75232C10.552 5.51148 10.5151 5.0346 10.4377 4.70671L10.4371 4.70724Z" fill="#E5E8EB"/>
<path d="M7.88881 4.29133C7.83434 4.32657 7.77881 4.36662 7.74997 4.42483C7.71633 4.49265 7.72541 4.57276 7.73502 4.64752C7.77614 4.97167 7.8226 5.31077 8.01004 5.57831C8.2904 5.97882 8.86286 6.12354 9.31945 5.95052C9.36377 5.93343 9.40863 5.91314 9.4396 5.87736C9.48179 5.8277 9.49087 5.75881 9.51063 5.6974C9.5667 5.52544 9.71729 5.39995 9.79259 5.23494C9.98323 4.81627 9.71943 4.21229 9.34188 4.00616C8.89811 3.76425 8.28559 4.03607 7.88881 4.29133Z" fill="#E5E8EB"/>
<path d="M7.64692 3.82989C7.5839 3.81868 7.51715 3.81014 7.45734 3.8331C7.38792 3.8598 7.34039 3.92335 7.29714 3.98369C7.10916 4.24536 6.91585 4.52091 6.87206 4.83972C6.80637 5.3166 7.12198 5.80469 7.56788 5.98572C7.61114 6.00335 7.6576 6.01883 7.70406 6.01349C7.76761 6.00602 7.81994 5.96223 7.87601 5.93125C8.03194 5.84474 8.22472 5.85489 8.3892 5.78653C8.80734 5.61191 9.02148 4.99993 8.88691 4.59781C8.72884 4.12574 8.10457 3.9116 7.64692 3.82989Z" fill="#E5E8EB"/>
<path d="M7.79535 4.40936C7.77292 4.34849 7.74622 4.28547 7.69549 4.24489C7.63674 4.19736 7.55664 4.18828 7.48135 4.18134C7.1556 4.15037 6.81489 4.12206 6.51264 4.24649C6.06086 4.43286 5.79385 4.9594 5.86327 5.44322C5.87021 5.49022 5.88036 5.53881 5.90866 5.57673C5.94765 5.62906 6.0128 5.65256 6.06887 5.68567C6.2248 5.77805 6.31398 5.95267 6.4587 6.06161C6.82611 6.3393 7.47227 6.21381 7.75636 5.88966C8.08959 5.50944 7.95822 4.85206 7.79535 4.40936Z" fill="#E5E8EB"/>
<path d="M7.35211 4.83176C7.31152 4.75753 7.2656 4.68223 7.19297 4.63951C7.1086 4.58985 7.00393 4.59359 6.9062 4.59893C6.48273 4.62135 6.04003 4.64912 5.67636 4.86647C5.1322 5.19115 4.89029 5.91795 5.07132 6.52513C5.08894 6.5844 5.11137 6.64421 5.15463 6.68747C5.21444 6.74728 5.30308 6.7649 5.38105 6.79694C5.59839 6.88612 5.74632 7.09279 5.95245 7.20547C6.47632 7.4917 7.28162 7.2076 7.58441 6.7382C7.93953 6.18709 7.64582 5.36898 7.35264 4.83176H7.35211Z" fill="#E5E8EB"/>
<path d="M5.52631 6.36962C5.47558 6.42035 5.42485 6.47695 5.40776 6.54691C5.38747 6.62808 5.4163 6.71246 5.44407 6.79149C5.56529 7.13219 5.69559 7.48785 5.96153 7.73296C6.35938 8.0993 7.01248 8.12066 7.46533 7.82535C7.50912 7.79651 7.55291 7.76394 7.57801 7.71748C7.61218 7.65393 7.60524 7.57756 7.61218 7.506C7.63194 7.30628 7.76545 7.1354 7.80763 6.93941C7.91444 6.44171 7.48669 5.85162 7.02957 5.71811C6.49288 5.56165 5.89478 6.00008 5.52631 6.37068V6.36962Z" fill="#E5E8EB"/>
<path d="M6.58047 6.62717C6.52013 6.65174 6.45765 6.68058 6.41813 6.73291C6.37221 6.79379 6.3658 6.87443 6.36099 6.95026C6.3407 7.27814 6.32254 7.62151 6.45711 7.92163C6.65844 8.36967 7.19673 8.62066 7.68055 8.53575C7.72754 8.52774 7.7756 8.51546 7.81298 8.48609C7.86425 8.4455 7.88561 8.37875 7.91712 8.32161C8.00523 8.16194 8.17718 8.06689 8.28239 7.9179C8.5494 7.53981 8.40254 6.89418 8.06825 6.6197C7.67574 6.29715 7.01943 6.45042 6.5794 6.62824L6.58047 6.62717Z" fill="#E5E8EB"/>
<path d="M7.05252 7.74541C7.02208 7.80895 6.99377 7.87784 7.00018 7.9478C7.00819 8.0295 7.06159 8.09839 7.11339 8.16247C7.33661 8.43856 7.57265 8.72533 7.89893 8.86577C8.38649 9.07564 8.99848 8.88286 9.32156 8.46152C9.35306 8.4204 9.38297 8.37608 9.39098 8.32481C9.40219 8.25486 9.37069 8.1865 9.35413 8.11762C9.30767 7.92644 9.37549 7.72458 9.35039 7.52966C9.28738 7.03356 8.69889 6.62664 8.23216 6.65227C7.68426 6.68218 7.27307 7.28295 7.05252 7.74594V7.74541Z" fill="#E5E8EB"/>
<path d="M9.51969 6.71352C9.48605 6.67987 9.44867 6.64676 9.40274 6.63555C9.3488 6.6222 9.29327 6.64142 9.24147 6.66011C9.01665 6.74075 8.78168 6.82726 8.62041 7.00402C8.37903 7.26729 8.36621 7.69931 8.5622 7.99783C8.58142 8.02666 8.60278 8.0555 8.63376 8.07206C8.67594 8.09448 8.72614 8.08968 8.77367 8.09448C8.90557 8.1073 9.01878 8.19488 9.14855 8.22265C9.47804 8.29261 9.8668 8.00851 9.95438 7.70625C10.0569 7.35113 9.76587 6.95703 9.52076 6.71405L9.51969 6.71352Z" fill="#E5E8EB"/>
<path d="M9.0177 6.72542C8.98299 6.77028 8.94934 6.81887 8.9424 6.87494C8.93439 6.94009 8.96483 7.00311 8.9942 7.06185C9.1213 7.31551 9.25747 7.57931 9.48817 7.74432C9.83314 7.99104 10.3437 7.94458 10.6678 7.67063C10.6993 7.64393 10.7303 7.61402 10.7452 7.57558C10.7655 7.52271 10.7527 7.46397 10.7517 7.40736C10.7479 7.25036 10.835 7.10404 10.8488 6.94757C10.8841 6.54973 10.4937 6.13159 10.1247 6.07178C9.69163 6.00183 9.26869 6.40127 9.0177 6.72542Z" fill="#E5E8EB"/>
<path d="M9.78993 5.40908C9.73653 5.42831 9.68206 5.4518 9.64628 5.49613C9.60462 5.54739 9.59715 5.61735 9.59074 5.6825C9.56351 5.96606 9.53787 6.26298 9.64574 6.52678C9.80755 6.92089 10.2663 7.15425 10.6881 7.09444C10.7293 7.08857 10.7715 7.08002 10.8046 7.05492C10.85 7.02128 10.8708 6.96414 10.8996 6.91554C10.9803 6.7799 11.1324 6.70247 11.228 6.57644C11.4705 6.25657 11.3621 5.69318 11.0801 5.44486C10.7496 5.15382 10.176 5.26757 9.78939 5.40855L9.78993 5.40908Z" fill="#E5E8EB"/>
<path d="M0.384786 10.2211C3.3865 13.8871 9.06578 13.8973 12.9908 11.8776C15.5925 10.5388 18.8922 7.13608 18.0923 3.86896C17.8776 2.99157 16.5228 3.36325 16.738 4.24224C17.3762 6.84878 14.2554 9.65237 12.2816 10.6649C8.86659 12.417 3.97766 12.4036 1.37752 9.22783C0.804524 8.52826 -0.183942 9.52688 0.384786 10.2206V10.2211Z" fill="#E5E8EB"/>
<path d="M4.46731 1.04027C4.46731 0.465743 4.00157 0 3.42705 0C2.85252 0 2.38678 0.465743 2.38678 1.04027V2.35235C2.38678 2.92687 2.85252 3.39261 3.42705 3.39261C4.00157 3.39261 4.46731 2.92687 4.46731 2.35235V1.04027Z" fill="#E5E8EB"/>
<path d="M12.8226 1.04027C12.8226 0.465743 12.3569 0 11.7823 0C11.2078 0 10.7421 0.465743 10.7421 1.04027V2.35235C10.7421 2.92687 11.2078 3.39261 11.7823 3.39261C12.3569 3.39261 12.8226 2.92687 12.8226 2.35235V1.04027Z" fill="#E5E8EB"/>
</svg>
