<svg width="353" height="400" viewBox="0 0 353 400" fill="none" xmlns="http://www.w3.org/2000/svg">
<g clip-path="url(#clip0_2046_59037)">
<rect width="353" height="497" fill="#4196FD"/>
<g filter="url(#filter0_b_2046_59037)">
<path d="M268.903 4.3352C269.9 -1.32677 275.378 -5.02115 280.895 -3.75247L283.632 -3.12325C287.179 -2.30751 290.899 -3.54091 293.309 -6.33212L294.985 -8.27283C298.622 -12.4844 304.927 -12.9065 309.012 -9.21175L312.291 -6.24586C314.824 -3.95477 318.355 -3.15938 321.633 -4.14175L325.317 -5.24573C330.283 -6.73396 335.509 -4.1047 337.306 0.786334L339.276 6.14779C340.388 9.17292 342.88 11.4538 345.966 12.2698L351.139 13.6381C355.969 14.9158 359.063 19.6586 358.342 24.6805L357.57 30.0588C357.109 33.2662 358.206 36.4877 360.515 38.7058L364.606 42.6369C368.338 46.2231 368.688 52.141 365.408 56.2138L362.975 59.235C360.81 61.9234 360.157 65.5409 361.248 68.8047L362.66 73.0298C364.419 78.2931 361.584 84.0358 356.353 85.8043L353.943 86.6192C350.477 87.7912 347.912 90.796 347.272 94.4366L346.777 97.2447C345.781 102.907 340.303 106.601 334.786 105.332L332.049 104.703C328.501 103.887 324.781 105.121 322.371 107.912L320.696 109.853C317.059 114.064 310.753 114.486 306.669 110.792L303.39 107.826C300.857 105.535 297.325 104.739 294.047 105.722L290.364 106.826C285.398 108.314 280.172 105.685 278.375 100.794L276.404 95.4321C275.292 92.407 272.8 90.1261 269.715 89.3101L264.542 87.9418C259.711 86.6641 256.617 81.9213 257.339 76.8994L258.111 71.5211C258.572 68.3137 257.474 65.0921 255.166 62.8741L251.075 58.943C247.342 55.3568 246.993 49.4389 250.273 45.3661L252.705 42.3449C254.87 39.6565 255.523 36.039 254.433 32.7752L253.021 28.5501C251.262 23.2867 254.097 17.5441 259.327 15.7756L261.737 14.9607C265.204 13.7887 267.768 10.7839 268.409 7.14331L268.903 4.3352Z" fill="#1C7FF6"/>
<rect width="54.6039" height="59.5637" transform="matrix(0.812593 -0.548033 0.533919 0.818494 272.934 46.2891)" fill="#1C7FF6"/>
<path d="M314.29 47.3298C315.659 49.4287 314.512 54.0783 311.361 56.203C308.211 58.3276 303.903 57.3572 302.534 55.2583C301.165 53.1595 302.604 49.7319 305.754 47.6072C308.905 45.4825 312.915 45.2229 314.29 47.3298Z" fill="white"/>
<path d="M309.946 48.2741C309.929 48.4936 309.922 48.7291 310.013 48.9215C310.125 49.1459 310.356 49.2896 310.569 49.4227C311.514 49.9735 312.509 50.5483 313.601 50.5848C315.238 50.6462 316.8 49.3966 317.286 47.8C317.332 47.6419 317.365 47.4812 317.342 47.3234C317.296 47.1122 317.131 46.9468 317.011 46.7625C316.669 46.2552 316.647 45.5889 316.366 45.052C315.644 43.6815 313.506 43.1508 312.179 43.7573C310.627 44.4583 310.089 46.6786 309.946 48.2741Z" fill="white"/>
<path d="M311.532 43.2942C311.417 43.1875 311.288 43.0782 311.138 43.0413C310.961 42.9991 310.78 43.0746 310.603 43.1367C309.863 43.4282 309.096 43.7492 308.573 44.3558C307.788 45.2656 307.779 46.7135 308.451 47.6907C308.514 47.7868 308.59 47.8856 308.69 47.9334C308.827 48.0025 308.996 47.9806 309.152 47.9907C309.586 48.0214 309.975 48.3011 310.405 48.38C311.499 48.577 312.768 47.5826 313.04 46.5567C313.357 45.3514 312.356 44.0648 311.535 43.2808L311.532 43.2942Z" fill="white"/>
<path d="M303.526 46.9866C303.442 47.1929 303.356 47.4127 303.38 47.6267C303.41 47.8835 303.586 48.0997 303.753 48.2864C304.474 49.127 305.234 50.0103 306.265 50.4109C307.81 51.0186 309.703 50.3299 310.671 48.9618C310.767 48.8277 310.858 48.6855 310.878 48.5222C310.904 48.2973 310.802 48.0889 310.743 47.875C310.584 47.2788 310.779 46.6278 310.678 46.0153C310.442 44.4559 308.569 43.2392 307.111 43.3806C305.401 43.5415 304.169 45.4912 303.52 46.9786L303.526 46.9866Z" fill="white"/>
<path d="M301.968 46.1336C301.772 46.2199 301.565 46.325 301.439 46.5021C301.287 46.7086 301.271 46.9843 301.267 47.2412C301.218 48.3467 301.18 49.5029 301.656 50.4968C302.361 51.9824 304.164 52.7739 305.766 52.4313C305.917 52.3987 306.084 52.3553 306.201 52.2532C306.369 52.1055 306.434 51.8885 306.536 51.6928C306.821 51.1432 307.384 50.8095 307.724 50.2919C308.589 48.9937 308.056 46.8385 306.925 45.9512C305.601 44.9065 303.433 45.4918 301.982 46.1363L301.968 46.1336Z" fill="white"/>
<path d="M303.474 47.5069C303.295 47.3737 303.1 47.2513 302.878 47.2279C302.622 47.2047 302.383 47.3313 302.152 47.4525C301.169 47.9883 300.152 48.559 299.52 49.4925C298.581 50.8872 298.806 52.9042 299.904 54.1477C300.009 54.2731 300.13 54.3878 300.283 54.4461C300.494 54.523 300.719 54.4634 300.941 54.452C301.552 54.4205 302.131 54.745 302.75 54.7778C304.312 54.8662 305.911 53.2685 306.116 51.804C306.36 50.0824 304.762 48.4607 303.474 47.5069Z" fill="white"/>
<path d="M303.004 49.5526C302.757 49.4196 302.48 49.2947 302.194 49.3144C301.861 49.3316 301.576 49.5466 301.303 49.7429C300.14 50.6192 298.94 51.5438 298.306 52.8599C297.365 54.8327 298.027 57.3621 299.679 58.7509C299.837 58.8868 300.01 59.012 300.222 59.0541C300.499 59.1094 300.786 58.9854 301.072 58.9309C301.853 58.7731 302.657 59.0728 303.448 59.0006C305.465 58.8172 307.221 56.4563 307.215 54.5456C307.195 52.2977 304.84 50.5179 303.004 49.5526Z" fill="white"/>
<path d="M300.676 57.4458C300.627 57.6868 300.588 57.9438 300.67 58.1764C300.766 58.4464 301.003 58.6329 301.229 58.8034C302.204 59.5415 303.243 60.306 304.447 60.4974C306.259 60.775 308.151 59.5912 308.886 57.884C308.962 57.7178 309.019 57.541 309.007 57.3644C308.982 57.1156 308.825 56.9101 308.711 56.6991C308.395 56.0926 308.459 55.3458 308.213 54.7043C307.591 53.082 305.282 52.2173 303.731 52.7095C301.915 53.2883 301.031 55.6837 300.676 57.4458Z" fill="white"/>
<path d="M304.151 56.1505C304.023 56.3409 303.899 56.5394 303.887 56.7669C303.874 57.0292 303.997 57.2697 304.13 57.4913C304.685 58.4663 305.267 59.4813 306.209 60.0802C307.619 60.9747 309.608 60.6603 310.831 59.4894C310.951 59.374 311.065 59.2505 311.112 59.0924C311.177 58.8754 311.12 58.6482 311.098 58.4208C311.048 57.7974 311.365 57.1915 311.383 56.5679C311.435 54.9754 309.824 53.4206 308.362 53.2756C306.645 53.1074 305.074 54.8013 304.151 56.1505Z" fill="white"/>
<path d="M307.57 58.436C307.603 58.6794 307.648 58.9255 307.795 59.115C307.97 59.3312 308.253 59.4293 308.511 59.5087C309.653 59.8688 310.864 60.2287 312.051 60.0053C313.83 59.6702 315.201 57.9502 315.334 56.13C315.343 55.9507 315.353 55.7713 315.277 55.603C315.178 55.3812 314.965 55.2481 314.787 55.0801C314.296 54.6268 314.119 53.9155 313.687 53.4112C312.586 52.1116 310.159 52.0876 308.882 53.0526C307.384 54.1896 307.338 56.6893 307.565 58.428L307.57 58.436Z" fill="white"/>
<path d="M312.655 50.7736C312.497 50.7421 312.33 50.7158 312.174 50.7752C311.996 50.8374 311.873 51.001 311.758 51.1593C311.272 51.822 310.764 52.5221 310.633 53.3254C310.439 54.541 311.203 55.8016 312.316 56.2742C312.424 56.3167 312.545 56.3618 312.651 56.3481C312.812 56.3315 312.945 56.2186 313.092 56.1432C313.493 55.9304 313.974 55.9636 314.393 55.7963C315.456 55.3672 316.037 53.8105 315.72 52.7785C315.357 51.5701 313.79 51 312.647 50.779L312.655 50.7736Z" fill="white"/>
<path d="M311.256 51.7623C311.244 51.955 311.237 52.1558 311.318 52.3321C311.414 52.5325 311.622 52.6576 311.812 52.772C312.641 53.251 313.523 53.7404 314.485 53.772C315.926 53.8154 317.289 52.7002 317.699 51.3046C317.74 51.1733 317.77 51.026 317.745 50.8816C317.701 50.6917 317.56 50.545 317.447 50.3902C317.147 49.9469 317.122 49.3636 316.869 48.8881C316.223 47.686 314.344 47.2347 313.181 47.7765C311.822 48.4045 311.36 50.3543 311.256 51.7623Z" fill="white"/>
<path d="M311.005 46.5341C310.89 46.6924 310.781 46.8587 310.76 47.0568C310.735 47.2816 310.842 47.4981 310.946 47.6931C311.394 48.556 311.876 49.4535 312.678 49.9968C313.873 50.8063 315.606 50.5945 316.693 49.6194C316.802 49.5227 316.906 49.418 316.947 49.2867C317.012 49.1045 316.971 48.9013 316.957 48.7033C316.937 48.1628 317.221 47.648 317.257 47.1046C317.348 45.7288 315.994 44.323 314.729 44.1613C313.244 43.9629 311.831 45.3886 311 46.5261L311.005 46.5341Z" fill="white"/>
<path d="M286.813 75.8C300.745 83.7937 318.81 76.762 328.863 65.4161C335.525 57.8917 341.942 42.8993 335.486 33.4416C333.758 30.9028 329.89 33.7776 331.63 36.3219C336.778 43.87 330.216 56.7241 325.155 62.4263C316.398 72.2856 300.839 78.3262 288.777 71.3931C286.118 69.868 284.17 74.2894 286.807 75.8125L286.813 75.8Z" fill="white"/>
<path d="M284.67 42.0777L284.663 42.083C283.033 43.1822 282.577 45.4003 283.645 47.0373L286.091 50.7864C287.159 52.4234 289.345 52.8595 290.975 51.7603L290.983 51.7549C292.613 50.6558 293.068 48.4377 292.001 46.8006L289.555 43.0515C288.487 41.4145 286.3 40.9785 284.67 42.0777Z" fill="white"/>
<path d="M308.391 26.0796L308.383 26.085C306.753 27.1842 306.297 29.4023 307.365 31.0393L309.811 34.7884C310.879 36.4254 313.065 36.8614 314.695 35.7622L314.703 35.7569C316.333 34.6577 316.789 32.4396 315.721 30.8026L313.275 27.0535C312.207 25.4165 310.02 24.9804 308.391 26.0796Z" fill="white"/>
</g>
<g filter="url(#filter1_b_2046_59037)">
<path d="M120.986 35.2427C126.129 33.2847 131.929 35.9326 133.99 41.1793L135.261 44.4156C136.582 47.7797 139.53 50.2192 143.026 50.8408L146.321 51.4266C151.732 52.3886 155.464 57.5646 154.722 63.0764L154.206 66.9025C153.734 70.4058 155.078 73.9378 157.759 76.2426L160.579 78.6667C164.732 82.2365 165.437 88.458 162.179 92.7782L159.686 96.0832C157.616 98.8269 157.075 102.476 158.251 105.769L159.642 109.668C161.478 114.813 159.063 120.457 154.143 122.518L150.415 124.08C147.266 125.399 145.017 128.268 144.446 131.696L143.758 135.825C142.858 141.222 137.929 144.872 132.578 144.103L128.944 143.58C125.489 143.084 122.055 144.435 119.865 147.154L117.472 150.123C114.026 154.4 107.808 155.034 103.477 151.548L100.84 149.426C98.041 147.174 94.3097 146.564 91.0118 147.819L87.8392 149.027C82.6958 150.985 76.8957 148.337 74.8354 143.091L73.5645 139.854C72.2435 136.49 69.2951 134.051 65.7988 133.429L62.5038 132.843C57.0931 131.881 53.3609 126.705 54.1035 121.194L54.619 117.367C55.0911 113.864 53.7475 110.332 51.0662 108.027L48.246 105.603C44.0929 102.034 43.3877 95.812 46.6465 91.4918L49.1395 88.1868C51.2091 85.4431 51.7496 81.7942 50.5743 78.5006L49.183 74.6018C47.347 69.4565 49.7621 63.8127 54.6819 61.7517L58.4099 60.1899C61.5591 58.8706 63.8078 56.0015 64.3791 52.5738L65.0672 48.4448C65.9667 43.0476 70.8959 39.3982 76.2474 40.1675L79.8814 40.6898C83.3364 41.1865 86.7697 39.8351 88.9602 37.1164L91.3526 34.1471C94.7989 29.8697 101.017 29.2363 105.348 32.7215L107.985 34.8439C110.784 37.0961 114.515 37.706 117.813 36.4505L120.986 35.2427Z" fill="#90C9F6" fill-opacity="0.4"/>
<path d="M111.775 95.7691C110.766 98.1266 106.223 99.6663 102.696 98.0563C99.1691 96.4462 97.6058 92.1185 98.6146 89.761C99.6234 87.4034 103.301 86.7912 106.828 88.4012C110.354 90.0113 112.788 93.4026 111.775 95.7691Z" fill="white"/>
<path d="M108.582 92.4608C108.388 92.5657 108.186 92.6886 108.074 92.8743C107.948 93.0961 107.955 93.3789 107.96 93.6397C108.019 94.7744 108.085 95.9663 108.658 96.9483C109.51 98.4237 111.424 99.1145 113.035 98.6668C113.193 98.6208 113.346 98.5617 113.467 98.4553C113.619 98.2989 113.667 98.0626 113.755 97.8556C113.993 97.2757 114.541 96.8915 114.838 96.3491C115.591 94.9615 114.857 92.787 113.614 91.9506C112.167 90.9673 110.002 91.7109 108.582 92.4608Z" fill="white"/>
<path d="M113.646 91.1261C113.672 90.9659 113.693 90.7925 113.641 90.6397C113.578 90.4607 113.415 90.3432 113.265 90.2208C112.611 89.7287 111.918 89.2292 111.119 89.1011C109.92 88.9089 108.698 89.6954 108.247 90.8234C108.201 90.9313 108.16 91.0524 108.175 91.1668C108.192 91.3254 108.304 91.4626 108.382 91.6056C108.595 92.0043 108.575 92.5006 108.747 92.923C109.185 93.9943 110.722 94.567 111.735 94.2444C112.924 93.8618 113.453 92.2751 113.659 91.1212L113.646 91.1261Z" fill="white"/>
<path d="M106.118 86.0977C105.899 86.1373 105.666 86.1817 105.5 86.3209C105.3 86.488 105.215 86.7611 105.151 87.0114C104.842 88.1073 104.519 89.2613 104.752 90.3893C105.094 92.0836 106.719 93.374 108.404 93.4765C108.57 93.4877 108.74 93.4899 108.888 93.4178C109.091 93.317 109.21 93.1132 109.358 92.9438C109.771 92.4764 110.427 92.2916 110.886 91.8667C112.067 90.8032 112.055 88.4854 111.131 87.2782C110.051 85.8604 107.732 85.8446 106.122 86.0887L106.118 86.0977Z" fill="white"/>
<path d="M105.975 84.2578C105.794 84.1321 105.592 84.0073 105.373 83.9937C105.115 83.9728 104.875 84.1104 104.657 84.2472C103.7 84.811 102.707 85.4116 102.134 86.3762C101.274 87.8122 101.604 89.8344 102.777 91.0583C102.888 91.1735 103.017 91.2968 103.167 91.344C103.384 91.4107 103.603 91.3491 103.824 91.3317C104.443 91.281 105.035 91.5942 105.658 91.6097C107.227 91.6591 108.745 90.0073 108.867 88.5249C109.014 86.785 107.324 85.1962 105.981 84.2709L105.975 84.2578Z" fill="white"/>
<path d="M105.652 86.337C105.665 86.1065 105.661 85.8677 105.558 85.6594C105.436 85.4208 105.197 85.2797 104.968 85.1427C103.974 84.5709 102.933 83.9877 101.799 83.9434C100.107 83.881 98.5351 85.1854 98.096 86.835C98.0484 86.9962 98.0187 87.1654 98.054 87.3322C98.1059 87.5602 98.2804 87.7259 98.4128 87.9154C98.7768 88.4365 98.8238 89.1249 99.1379 89.6878C99.9263 91.1125 102.153 91.6451 103.498 91.022C105.08 90.2923 105.561 87.9952 105.652 86.337Z" fill="white"/>
<path d="M103.673 87.046C103.648 86.755 103.6 86.4428 103.426 86.2018C103.227 85.9176 102.889 85.7847 102.573 85.6511C101.194 85.1076 99.7536 84.5576 98.2964 84.7206C96.1176 84.9736 94.3563 86.9446 94.1011 89.1622C94.0738 89.3756 94.0644 89.5971 94.1456 89.8063C94.2523 90.0809 94.5149 90.2653 94.7187 90.4874C95.2829 91.0892 95.4751 91.9621 95.9728 92.6196C97.2408 94.2956 100.196 94.5476 101.8 93.4941C103.679 92.2441 103.875 89.1927 103.673 87.046Z" fill="white"/>
<path d="M95.7492 89.3244C95.5191 89.413 95.2814 89.5195 95.1316 89.72C94.9574 89.9525 94.9312 90.2632 94.9127 90.5559C94.8307 91.8199 94.7613 93.1543 95.2656 94.3203C96.0329 96.0688 98.0735 97.0865 99.9153 96.7979C100.097 96.7732 100.277 96.7263 100.419 96.619C100.614 96.461 100.701 96.2099 100.815 95.9931C101.151 95.3827 101.814 95.0295 102.218 94.4608C103.238 93.023 102.69 90.5138 101.419 89.4175C99.9295 88.135 97.4271 88.6706 95.7492 89.3244Z" fill="white"/>
<path d="M98.7581 91.6752C98.5271 91.6665 98.2921 91.6668 98.094 91.7807C97.8664 91.9134 97.7318 92.1532 97.6189 92.392C97.1059 93.4163 96.5736 94.4855 96.5902 95.644C96.617 97.3772 97.9796 98.9566 99.6398 99.3918C99.8031 99.4341 99.9703 99.4674 100.129 99.4214C100.347 99.3598 100.507 99.1854 100.686 99.0413C101.183 98.6548 101.867 98.6015 102.401 98.2755C103.77 97.4479 104.187 95.1754 103.502 93.8085C102.695 92.2031 100.403 91.7482 98.7581 91.6752Z" fill="white"/>
<path d="M98.7241 95.9415C98.5373 96.1036 98.3556 96.2788 98.2772 96.5119C98.1923 96.7851 98.2657 97.0875 98.3417 97.3588C98.6697 98.5627 99.0359 99.8269 99.8791 100.75C101.144 102.134 103.347 102.397 104.951 101.516C105.107 101.426 105.263 101.336 105.363 101.177C105.495 100.969 105.489 100.708 105.532 100.459C105.642 99.7774 106.143 99.2314 106.328 98.5739C106.813 96.8915 105.493 94.7398 103.976 94.1441C102.192 93.4483 100.065 94.7788 98.728 95.9325L98.7241 95.9415Z" fill="white"/>
<path d="M107.977 96.2184C107.916 96.0615 107.846 95.9005 107.71 95.7952C107.559 95.6728 107.354 95.6543 107.157 95.6398C106.331 95.5747 105.462 95.5112 104.714 95.8368C103.585 96.3321 102.947 97.6974 103.164 98.9365C103.188 99.055 103.217 99.1866 103.287 99.2724C103.39 99.4055 103.558 99.4609 103.703 99.5482C104.103 99.7847 104.341 100.227 104.713 100.504C105.661 101.206 107.291 100.864 107.984 100.018C108.799 99.0354 108.414 97.3428 107.968 96.2143L107.977 96.2184Z" fill="white"/>
<path d="M106.372 95.5282C106.203 95.6232 106.031 95.7273 105.927 95.895C105.811 96.0898 105.821 96.3415 105.83 96.5713C105.885 97.5645 105.96 98.6101 106.465 99.4752C107.225 100.768 108.915 101.357 110.315 100.953C110.448 100.917 110.589 100.863 110.696 100.761C110.832 100.619 110.877 100.414 110.945 100.23C111.152 99.7217 111.629 99.3802 111.889 98.8966C112.543 97.6678 111.885 95.7646 110.787 95.0376C109.508 94.1849 107.613 94.8472 106.372 95.5282Z" fill="white"/>
<path d="M110.63 92.439C110.434 92.4245 110.233 92.4191 110.056 92.5101C109.852 92.6109 109.729 92.8236 109.623 93.0224C109.145 93.8905 108.656 94.8076 108.643 95.8124C108.621 97.3086 109.757 98.7198 111.177 99.1423C111.319 99.1854 111.464 99.2196 111.597 99.1834C111.786 99.1407 111.935 98.9933 112.093 98.8721C112.537 98.5584 113.127 98.5265 113.604 98.2602C114.811 97.585 115.245 95.6214 114.682 94.4179C114.029 93.0011 112.05 92.5385 110.634 92.43L110.63 92.439Z" fill="white"/>
<path d="M72.6566 87.1781C73.6295 103.838 89.5203 115.895 104.614 118.529C114.622 120.271 130.774 117.7 135.161 106.824C136.342 103.91 131.788 102.079 130.61 105.008C127.105 113.683 112.671 114.953 105.08 113.622C91.9526 111.315 78.2791 100.921 77.4474 86.4911C77.2615 83.3122 72.4672 84.0209 72.643 87.18L72.6566 87.1781Z" fill="white"/>
<path d="M99.8321 66.793L99.8232 66.7889C97.9987 65.956 95.8818 66.7714 95.095 68.6101L93.2929 72.8213C92.5061 74.66 93.3473 76.8258 95.1718 77.6587L95.1807 77.6628C97.0052 78.4957 99.1221 77.6804 99.909 75.8416L101.711 71.6305C102.498 69.7917 101.657 67.6259 99.8321 66.793Z" fill="white"/>
<path d="M126.387 78.9156L126.378 78.9115C124.553 78.0785 122.436 78.8939 121.65 80.7327L119.847 84.9438C119.061 86.7826 119.902 88.9484 121.726 89.7813L121.735 89.7854C123.56 90.6183 125.677 89.8029 126.464 87.9642L128.266 83.753C129.052 81.9143 128.211 79.7485 126.387 78.9156Z" fill="white"/>
</g>
<g filter="url(#filter2_b_2046_59037)">
<path d="M39.1268 227.236C42.4793 223.178 48.4661 222.589 52.5008 225.919L54.9143 227.911C57.5024 230.047 61.0342 230.647 64.1997 229.488L67.0616 228.439C71.941 226.652 77.3271 229.104 79.1624 233.949L80.4672 237.393C81.6294 240.461 84.2956 242.701 87.5178 243.316L90.9437 243.97C95.9171 244.92 99.2461 249.616 98.5078 254.641L97.9061 258.736C97.4391 261.914 98.6037 265.105 101.003 267.219L104.02 269.878C107.769 273.183 108.293 278.851 105.215 282.828L102.74 286.028C100.771 288.573 100.211 291.933 101.251 294.963L102.591 298.866C104.236 303.656 101.826 308.918 97.1164 310.822L93.8721 312.133C90.8206 313.366 88.6123 316.086 88.0325 319.326L87.3815 322.963C86.4659 328.078 81.6257 331.538 76.5072 330.735L73.505 330.265C70.1845 329.744 66.826 331.023 64.6755 333.626L62.6701 336.053C59.3176 340.111 53.3308 340.701 49.2961 337.371L46.8825 335.378C44.2944 333.242 40.7626 332.643 37.5971 333.802L34.7352 334.85C29.8558 336.638 24.4698 334.185 22.6344 329.341L21.3296 325.896C20.1674 322.828 17.5012 320.589 14.279 319.973L10.8532 319.319C5.87972 318.369 2.55069 313.673 3.28904 308.648L3.8907 304.554C4.35775 301.375 3.1931 298.185 0.793709 296.07L-2.22282 293.412C-5.97255 290.107 -6.4959 284.439 -3.41858 280.461L-0.942977 277.262C1.02615 274.717 1.58596 271.357 0.545655 268.327L-0.794492 264.423C-2.43912 259.633 -0.0295649 254.371 4.68042 252.468L7.92478 251.157C10.9763 249.923 13.1845 247.203 13.7644 243.964L14.4153 240.327C15.331 235.211 20.1711 231.752 25.2897 232.554L28.2918 233.025C31.6124 233.545 34.9708 232.267 37.1213 229.664L39.1268 227.236Z" fill="#1C7FF6"/>
</g>
<path d="M33.539 282.632C33.1068 282.23 32.8627 281.725 32.8067 281.119C32.7507 280.512 32.898 279.969 33.2488 279.489L38.6575 272.725L36.1431 270.58L35.5636 271.305C35.1773 271.788 34.6905 272.059 34.1033 272.116C33.516 272.174 32.9885 272.004 32.5207 271.605C32.0885 271.202 31.8444 270.697 31.7884 270.091C31.7324 269.484 31.8815 268.96 32.2356 268.517L36.099 263.685C36.4853 263.202 36.9721 262.931 37.5593 262.874C38.1466 262.816 38.6741 262.986 39.1419 263.385C39.6063 263.748 39.8673 264.241 39.925 264.866C39.9827 265.491 39.8167 266.027 39.427 266.473L38.8475 267.198L41.3619 269.343L46.7706 262.578C47.157 262.095 47.6437 261.824 48.2309 261.767C48.8182 261.709 49.3457 261.879 49.8135 262.278C50.2813 262.677 50.5432 263.18 50.5992 263.787C50.6552 264.393 50.49 264.938 50.1037 265.421L48.7947 266.997L52.4201 270.089L46.958 276.859C46.6073 277.339 46.4599 277.882 46.5159 278.488C46.5719 279.095 46.816 279.6 47.2482 280.002C47.716 280.401 48.2435 280.572 48.8307 280.514C49.418 280.456 49.9047 280.186 50.2911 279.702L55.6947 272.883L59.2566 275.87L53.7996 282.695C53.4132 283.178 53.248 283.723 53.3041 284.33C53.3601 284.936 53.622 285.439 54.0898 285.838C54.5186 286.204 55.0257 286.349 55.6113 286.272C56.1968 286.196 56.6844 285.935 57.0741 285.488L62.4778 278.669L66.0447 281.711C66.9413 282.476 67.4465 283.474 67.5602 284.706C67.6739 285.937 67.3605 287.016 66.62 287.942L65.273 289.688L74.3314 297.365C74.7213 297.697 74.8476 298.093 74.7104 298.551C74.5732 299.01 74.2554 299.264 73.7572 299.313L71.5685 299.529C71.1414 299.571 70.7147 299.52 70.2885 299.376C69.8622 299.233 69.4932 299.028 69.1813 298.762L62.5152 293.076L61.1681 294.822C60.4276 295.748 59.4613 296.27 58.269 296.387C57.0768 296.505 56.0324 296.181 55.1358 295.416L37.8857 280.702L36.5818 282.333C36.1921 282.779 35.7036 283.031 35.1164 283.089C34.5292 283.147 34.0034 282.995 33.539 282.632Z" fill="white"/>
<path d="M194.921 108.287C194.921 93.7689 183.121 82 168.565 82C154.01 82 142.21 93.7689 142.21 108.287V144.172C142.21 158.69 154.01 170.459 168.565 170.459C183.121 170.459 194.921 158.69 194.921 144.172V108.287Z" fill="white"/>
<path d="M276.676 108.286C276.676 93.7684 264.876 81.9995 250.321 81.9995C235.765 81.9995 223.966 93.7684 223.966 108.286V144.172C223.966 158.689 235.765 170.458 250.321 170.458C264.876 170.458 276.676 158.689 276.676 144.172V108.286Z" fill="white"/>
<path d="M187.187 110.694C187.187 100.434 178.849 92.1177 168.564 92.1177C158.279 92.1177 149.941 100.434 149.941 110.694V136.057C149.941 146.316 158.279 154.632 168.564 154.632C178.849 154.632 187.187 146.316 187.187 136.057V110.694Z" fill="#E9ECF2"/>
<path d="M268.943 110.694C268.943 100.434 260.606 92.1177 250.321 92.1177C240.035 92.1177 231.698 100.434 231.698 110.694V136.057C231.698 146.316 240.035 154.632 250.321 154.632C260.606 154.632 268.943 146.316 268.943 136.057V110.694Z" fill="#E9ECF2"/>
<path d="M197.325 94.8882H221.573C251.992 94.8882 276.687 119.514 276.687 149.848V321.297H142.21V149.848C142.21 119.514 166.906 94.8882 197.325 94.8882Z" fill="white"/>
<path d="M217.43 152.952C217.43 155.671 213.642 159.158 209.531 159.158C205.421 159.158 202.09 155.671 202.09 152.952C202.09 150.233 205.421 148.022 209.531 148.022C213.642 148.022 217.43 150.223 217.43 152.952Z" fill="black"/>
<path d="M212.934 151.167C212.788 151.354 212.643 151.561 212.611 151.789C212.58 152.059 212.705 152.329 212.82 152.578C213.35 153.647 213.912 154.768 214.88 155.463C216.327 156.511 218.481 156.335 219.865 155.193C220 155.079 220.125 154.955 220.198 154.799C220.281 154.581 220.229 154.332 220.229 154.093C220.219 153.429 220.593 152.817 220.656 152.163C220.812 150.492 219.188 148.718 217.627 148.458C215.806 148.147 214.006 149.818 212.934 151.167Z" fill="black"/>
<path d="M217.316 147.649C217.275 147.483 217.223 147.307 217.108 147.182C216.973 147.037 216.765 146.996 216.567 146.944C215.724 146.757 214.84 146.58 214.007 146.809C212.758 147.151 211.894 148.448 211.926 149.735C211.926 149.86 211.936 149.995 211.999 150.098C212.082 150.244 212.248 150.327 212.384 150.43C212.758 150.721 212.946 151.209 213.289 151.541C214.163 152.381 215.901 152.257 216.754 151.499C217.754 150.607 217.608 148.843 217.327 147.639L217.316 147.649Z" fill="black"/>
<path d="M207.878 146.112C207.68 146.247 207.472 146.393 207.368 146.6C207.243 146.849 207.274 147.15 207.316 147.42C207.472 148.613 207.639 149.869 208.336 150.855C209.377 152.339 211.5 152.868 213.185 152.225C213.352 152.163 213.518 152.09 213.633 151.955C213.789 151.768 213.82 151.519 213.893 151.291C214.101 150.658 214.663 150.191 214.934 149.579C215.641 148.032 214.663 145.801 213.258 145.043C211.614 144.151 209.345 145.158 207.878 146.102V146.112Z" fill="black"/>
<path d="M206.97 144.4C206.741 144.359 206.492 144.328 206.273 144.411C206.013 144.504 205.836 144.743 205.68 144.971C204.983 145.936 204.265 146.953 204.109 148.136C203.869 149.9 205.035 151.706 206.689 152.37C206.846 152.432 207.022 152.495 207.189 152.474C207.428 152.443 207.616 152.287 207.824 152.173C208.407 151.851 209.114 151.893 209.728 151.633C211.279 150.99 212.07 148.728 211.57 147.244C210.987 145.5 208.677 144.712 206.981 144.411L206.97 144.4Z" fill="black"/>
<path d="M207.524 146.548C207.441 146.32 207.337 146.092 207.149 145.936C206.931 145.76 206.639 145.729 206.358 145.697C205.151 145.583 203.892 145.479 202.768 145.936C201.093 146.621 200.104 148.572 200.364 150.357C200.385 150.533 200.427 150.71 200.531 150.855C200.676 151.052 200.916 151.135 201.124 151.26C201.696 151.602 202.029 152.246 202.57 152.65C203.934 153.678 206.327 153.211 207.378 152.017C208.617 150.616 208.128 148.188 207.524 146.548Z" fill="black"/>
<path d="M205.89 148.106C205.744 147.836 205.567 147.556 205.296 147.4C204.984 147.214 204.599 147.234 204.235 147.245C202.663 147.328 201.03 147.431 199.677 148.231C197.658 149.434 196.763 152.112 197.439 154.364C197.502 154.582 197.585 154.8 197.751 154.966C197.97 155.184 198.303 155.246 198.594 155.37C199.396 155.702 199.947 156.46 200.707 156.875C202.643 157.934 205.629 156.875 206.753 155.152C208.065 153.118 206.982 150.088 205.89 148.106Z" fill="black"/>
<path d="M199.114 153.793C198.927 153.98 198.739 154.187 198.677 154.447C198.604 154.748 198.708 155.059 198.812 155.349C199.26 156.605 199.749 157.923 200.727 158.826C202.205 160.175 204.619 160.258 206.295 159.168C206.461 159.065 206.617 158.94 206.711 158.774C206.836 158.535 206.815 158.255 206.836 157.996C206.909 157.259 207.408 156.626 207.564 155.899C207.96 154.063 206.378 151.883 204.682 151.385C202.694 150.804 200.477 152.423 199.114 153.793Z" fill="black"/>
<path d="M203.028 154.737C202.799 154.83 202.57 154.934 202.424 155.131C202.258 155.359 202.226 155.65 202.216 155.93C202.143 157.144 202.07 158.41 202.57 159.521C203.319 161.181 205.307 162.105 207.107 161.793C207.284 161.762 207.461 161.721 207.596 161.607C207.784 161.451 207.867 161.212 207.981 160.994C208.304 160.403 208.949 160.05 209.334 159.5C210.323 158.099 209.782 155.722 208.543 154.705C207.086 153.512 204.662 154.083 203.028 154.737Z" fill="black"/>
<path d="M204.777 158.867C204.662 159.106 204.558 159.355 204.579 159.614C204.61 159.915 204.808 160.174 204.995 160.403C205.818 161.42 206.702 162.478 207.909 162.997C209.72 163.775 211.978 163.059 213.175 161.503C213.29 161.347 213.404 161.191 213.435 160.994C213.477 160.735 213.363 160.486 213.3 160.226C213.123 159.521 213.383 158.773 213.29 158.057C213.061 156.221 210.875 154.726 209.148 154.82C207.118 154.934 205.599 157.155 204.777 158.856V158.867Z" fill="black"/>
<path d="M213.913 155.059C213.788 154.934 213.652 154.81 213.475 154.768C213.278 154.716 213.07 154.789 212.872 154.861C212.039 155.162 211.165 155.484 210.572 156.128C209.677 157.103 209.625 158.701 210.353 159.801C210.426 159.905 210.51 160.019 210.614 160.071C210.77 160.154 210.957 160.133 211.134 160.154C211.623 160.206 212.039 160.528 212.518 160.631C213.736 160.891 215.182 159.843 215.505 158.722C215.89 157.414 214.808 155.951 213.902 155.059H213.913Z" fill="black"/>
<path d="M212.061 155.1C211.936 155.266 211.811 155.442 211.78 155.65C211.749 155.889 211.863 156.127 211.967 156.345C212.436 157.279 212.946 158.255 213.799 158.867C215.079 159.78 216.973 159.604 218.17 158.597C218.284 158.504 218.399 158.39 218.461 158.244C218.534 158.047 218.492 157.829 218.482 157.622C218.472 157.04 218.794 156.501 218.846 155.92C218.971 154.446 217.535 152.9 216.161 152.682C214.559 152.422 212.987 153.896 212.061 155.1Z" fill="black"/>
<path d="M214.923 150.243C214.725 150.316 214.527 150.399 214.392 150.565C214.236 150.751 214.205 151.011 214.184 151.249C214.08 152.298 213.986 153.398 214.392 154.373C214.996 155.826 216.692 156.687 218.253 156.469C218.409 156.449 218.565 156.418 218.68 156.324C218.846 156.2 218.929 155.992 219.034 155.805C219.335 155.307 219.897 155.017 220.251 154.55C221.146 153.367 220.751 151.281 219.7 150.367C218.472 149.288 216.349 149.714 214.923 150.232V150.243Z" fill="black"/>
<path d="M175.352 161.894C183.252 177.539 203.777 182.173 219.594 178.066C230.079 175.339 244.756 165.744 244.496 153.318C244.431 149.986 239.227 150.226 239.3 153.57C239.503 163.484 225.958 171.067 218.001 173.126C204.238 176.683 186.568 172.677 179.736 159.121C178.229 156.136 173.85 158.931 175.339 161.902L175.352 161.894Z" fill="black"/>
<path d="M191.351 130.256H191.341C189.214 130.256 187.49 131.975 187.49 134.096V138.952C187.49 141.073 189.214 142.792 191.341 142.792H191.351C193.478 142.792 195.202 141.073 195.202 138.952V134.096C195.202 131.975 193.478 130.256 191.351 130.256Z" fill="black"/>
<path d="M222.301 130.256H222.29C220.164 130.256 218.44 131.975 218.44 134.096V138.952C218.44 141.073 220.164 142.792 222.29 142.792H222.301C224.427 142.792 226.151 141.073 226.151 138.952V134.096C226.151 131.975 224.427 130.256 222.301 130.256Z" fill="black"/>
<path d="M142.468 208.315C142.468 208.315 147.238 231.173 113.774 286.227C80.3099 341.28 86.7704 421.746 86.7704 421.746H276.469V270.497L142.478 208.315H142.468Z" fill="white"/>
<path d="M37.4147 128.678L35.1188 130.275C33.9403 131.095 33.6514 132.712 34.4735 133.888L89.2166 212.14C90.0387 213.315 91.6605 213.603 92.8389 212.783L95.1349 211.186C96.3133 210.366 96.6022 208.749 95.7801 207.574L41.0371 129.322C40.215 128.146 38.5932 127.858 37.4147 128.678Z" fill="#3D3F4D"/>
<path d="M96.2474 198.076L80.1245 209.292C78.6349 210.328 78.2698 212.372 79.3089 213.858L96.1951 237.995C97.2342 239.481 99.2841 239.845 100.774 238.809L116.897 227.593C118.386 226.556 118.751 224.512 117.712 223.027L100.826 198.889C99.7869 197.404 97.737 197.04 96.2474 198.076Z" fill="#69AFEE"/>
<path d="M225.722 383.159L209.599 394.375C208.11 395.411 207.745 397.456 208.784 398.941L238.001 440.706C239.04 442.191 241.09 442.555 242.58 441.519L258.703 430.303C260.192 429.267 260.558 427.223 259.518 425.737L230.301 383.973C229.262 382.487 227.212 382.123 225.722 383.159Z" fill="#3B80D3"/>
<path d="M115.567 206.571L81.4523 230.303C79.9627 231.34 79.5976 233.384 80.6367 234.869L97.5229 259.007C98.562 260.492 100.612 260.857 102.102 259.82L136.217 236.088C137.706 235.052 138.071 233.008 137.032 231.522L120.146 207.384C119.107 205.899 117.057 205.535 115.567 206.571Z" fill="#3B80D3"/>
<path d="M92.9219 252.718L132.687 225.055C139.217 220.513 148.206 222.117 152.755 228.62L249.809 367.353L186.401 411.462L89.3473 272.729C84.7923 266.218 86.401 257.254 92.9219 252.718Z" fill="#E1F4FF"/>
<path d="M247.829 358.152L178.43 406.43C176.94 407.466 176.575 409.51 177.614 410.996L186.546 423.763C187.585 425.248 189.635 425.612 191.124 424.576L260.524 376.298C262.013 375.262 262.378 373.218 261.339 371.732L252.408 358.965C251.369 357.48 249.319 357.116 247.829 358.152Z" fill="#6DB2F8"/>
<path d="M277.081 399.991L207.681 448.269C206.192 449.305 205.827 451.35 206.866 452.835L215.797 465.602C216.836 467.087 218.886 467.451 220.376 466.415L289.775 418.137C291.265 417.101 291.63 415.057 290.591 413.571L281.659 400.805C280.62 399.319 278.57 398.955 277.081 399.991Z" fill="#6DB2F8"/>
<path d="M162.34 242.323L166.918 248.868L141.654 266.443C140.477 267.262 138.854 266.974 138.032 265.799L136.43 263.51C135.609 262.335 135.898 260.717 137.076 259.898L162.34 242.323Z" fill="#AAC5E2"/>
<path d="M228.294 336.626L232.873 343.171L207.608 360.746C206.431 361.566 204.808 361.277 203.986 360.103L202.384 357.813C201.563 356.639 201.852 355.02 203.03 354.201L228.294 336.626Z" fill="#AAC5E2"/>
<path d="M195.318 289.462L199.896 296.008L163.946 321.016C162.768 321.836 161.146 321.547 160.324 320.373L158.722 318.083C157.901 316.909 158.19 315.291 159.367 314.471L195.318 289.462Z" fill="#AAC5E2"/>
<path d="M178.828 265.899L183.407 272.444L165.841 284.663C164.663 285.483 163.041 285.195 162.219 284.02L160.617 281.731C159.795 280.556 160.085 278.938 161.262 278.118L178.828 265.899Z" fill="#AAC5E2"/>
<path d="M211.809 313.048L216.388 319.593L198.822 331.813C197.644 332.632 196.021 332.344 195.2 331.169L193.598 328.88C192.776 327.705 193.066 326.087 194.243 325.268L211.809 313.048Z" fill="#AAC5E2"/>
<path d="M81.1531 370.809C81.1531 370.809 29.452 336.677 99.3546 269.866C169.257 203.055 182.37 284.395 154.698 310.536C127.026 336.677 116.099 394.045 116.099 394.045L81.1427 370.809H81.1531Z" fill="white"/>
<path d="M298.498 296.162C298.498 296.162 331.946 341.129 251.761 376.475C171.577 411.821 185.595 338.555 217.242 324.825C248.889 311.085 275.947 265.621 275.947 265.621L298.509 296.162H298.498Z" fill="white"/>
<g filter="url(#filter3_b_2046_59037)">
<path d="M323.986 219.243C329.129 217.285 334.929 219.933 336.99 225.179L338.261 228.416C339.582 231.78 342.53 234.219 346.026 234.841L349.321 235.427C354.732 236.389 358.464 241.565 357.722 247.076L357.206 250.903C356.734 254.406 358.078 257.938 360.759 260.243L363.579 262.667C367.732 266.236 368.437 272.458 365.179 276.778L362.686 280.083C360.616 282.827 360.076 286.476 361.251 289.769L362.642 293.668C364.478 298.813 362.063 304.457 357.143 306.518L353.415 308.08C350.266 309.399 348.017 312.268 347.446 315.696L346.758 319.825C345.858 325.222 340.929 328.872 335.578 328.103L331.944 327.58C328.489 327.084 325.055 328.435 322.865 331.154L320.473 334.123C317.026 338.4 310.808 339.034 306.477 335.548L303.84 333.426C301.041 331.174 297.31 330.564 294.012 331.819L290.839 333.027C285.696 334.985 279.896 332.337 277.836 327.091L276.565 323.854C275.244 320.49 272.295 318.051 268.799 317.429L265.504 316.843C260.093 315.881 256.361 310.705 257.104 305.194L257.619 301.367C258.091 297.864 256.748 294.332 254.066 292.027L251.246 289.603C247.093 286.034 246.388 279.812 249.647 275.492L252.14 272.187C254.209 269.443 254.75 265.794 253.574 262.501L252.183 258.602C250.347 253.457 252.762 247.813 257.682 245.752L261.41 244.19C264.559 242.871 266.808 240.002 267.379 236.574L268.067 232.445C268.967 227.048 273.896 223.398 279.248 224.167L282.882 224.69C286.337 225.186 289.77 223.835 291.96 221.116L294.353 218.147C297.799 213.87 304.017 213.236 308.348 216.722L310.986 218.844C313.784 221.096 317.515 221.706 320.813 220.451L323.986 219.243Z" fill="#90C9F6" fill-opacity="0.4"/>
<path d="M314.775 279.769C313.767 282.127 309.223 283.666 305.696 282.056C302.169 280.446 300.606 276.118 301.615 273.761C302.624 271.403 306.301 270.791 309.828 272.401C313.354 274.011 315.788 277.403 314.775 279.769Z" fill="white"/>
<path d="M311.582 276.461C311.388 276.566 311.186 276.689 311.075 276.874C310.948 277.096 310.955 277.379 310.96 277.64C311.019 278.774 311.086 279.966 311.658 280.948C312.51 282.424 314.424 283.114 316.035 282.667C316.193 282.621 316.347 282.562 316.467 282.455C316.619 282.299 316.667 282.063 316.755 281.856C316.993 281.276 317.542 280.892 317.838 280.349C318.592 278.962 317.857 276.787 316.614 275.951C315.167 274.967 313.003 275.711 311.582 276.461Z" fill="white"/>
<path d="M316.646 275.126C316.672 274.966 316.693 274.793 316.641 274.64C316.579 274.461 316.415 274.343 316.265 274.221C315.611 273.729 314.918 273.229 314.119 273.101C312.92 272.909 311.698 273.695 311.247 274.823C311.201 274.931 311.16 275.052 311.175 275.167C311.192 275.325 311.304 275.463 311.382 275.606C311.596 276.004 311.575 276.501 311.747 276.923C312.185 277.994 313.722 278.567 314.735 278.244C315.924 277.862 316.453 276.275 316.659 275.121L316.646 275.126Z" fill="white"/>
<path d="M309.118 270.098C308.899 270.137 308.666 270.182 308.5 270.321C308.3 270.488 308.216 270.761 308.151 271.011C307.842 272.107 307.519 273.261 307.752 274.389C308.094 276.084 309.719 277.374 311.404 277.476C311.57 277.488 311.74 277.49 311.888 277.418C312.091 277.317 312.211 277.113 312.358 276.944C312.771 276.476 313.427 276.292 313.886 275.867C315.067 274.803 315.055 272.485 314.131 271.278C313.052 269.86 310.732 269.845 309.122 270.089L309.118 270.098Z" fill="white"/>
<path d="M308.976 268.258C308.795 268.132 308.592 268.007 308.373 267.994C308.116 267.973 307.875 268.11 307.657 268.247C306.7 268.811 305.707 269.412 305.134 270.376C304.274 271.812 304.604 273.834 305.777 275.058C305.888 275.173 306.017 275.297 306.167 275.344C306.384 275.411 306.603 275.349 306.824 275.332C307.443 275.281 308.035 275.594 308.658 275.61C310.227 275.659 311.745 274.007 311.867 272.525C312.014 270.785 310.324 269.196 308.981 268.271L308.976 268.258Z" fill="white"/>
<path d="M308.652 270.337C308.665 270.106 308.661 269.868 308.558 269.659C308.436 269.421 308.197 269.28 307.968 269.143C306.975 268.571 305.933 267.988 304.799 267.943C303.107 267.881 301.535 269.185 301.096 270.835C301.049 270.996 301.019 271.165 301.054 271.332C301.106 271.56 301.281 271.726 301.413 271.915C301.777 272.437 301.824 273.125 302.138 273.688C302.926 275.113 305.153 275.645 306.498 275.022C308.08 274.292 308.562 271.995 308.652 270.337Z" fill="white"/>
<path d="M306.673 271.046C306.648 270.755 306.6 270.443 306.426 270.202C306.227 269.918 305.889 269.785 305.573 269.651C304.194 269.108 302.754 268.558 301.297 268.721C299.118 268.974 297.356 270.945 297.101 273.162C297.074 273.376 297.064 273.597 297.146 273.806C297.252 274.081 297.515 274.265 297.719 274.487C298.283 275.089 298.475 275.962 298.973 276.62C300.241 278.296 303.196 278.548 304.8 277.494C306.679 276.244 306.875 273.193 306.673 271.046Z" fill="white"/>
<path d="M298.749 273.324C298.519 273.413 298.282 273.52 298.132 273.72C297.958 273.952 297.931 274.263 297.913 274.556C297.831 275.82 297.761 277.154 298.266 278.32C299.033 280.069 301.074 281.086 302.915 280.798C303.097 280.773 303.277 280.726 303.419 280.619C303.615 280.461 303.701 280.21 303.815 279.993C304.151 279.383 304.814 279.029 305.218 278.461C306.238 277.023 305.69 274.514 304.419 273.417C302.93 272.135 300.427 272.671 298.749 273.324Z" fill="white"/>
<path d="M301.758 275.675C301.527 275.666 301.292 275.667 301.094 275.781C300.867 275.913 300.732 276.153 300.619 276.392C300.106 277.416 299.574 278.486 299.59 279.644C299.617 281.377 300.98 282.957 302.64 283.392C302.803 283.434 302.97 283.467 303.129 283.421C303.347 283.36 303.507 283.185 303.686 283.041C304.183 282.655 304.867 282.602 305.402 282.275C306.77 281.448 307.187 279.175 306.502 277.809C305.695 276.203 303.403 275.748 301.758 275.675Z" fill="white"/>
<path d="M301.724 279.941C301.537 280.104 301.356 280.279 301.277 280.512C301.192 280.785 301.266 281.087 301.342 281.359C301.67 282.563 302.036 283.827 302.879 284.75C304.144 286.134 306.347 286.397 307.952 285.516C308.108 285.426 308.263 285.336 308.363 285.177C308.495 284.969 308.49 284.708 308.532 284.459C308.642 283.777 309.143 283.231 309.328 282.574C309.813 280.892 308.493 278.74 306.976 278.144C305.193 277.448 303.065 278.779 301.728 279.932L301.724 279.941Z" fill="white"/>
<path d="M310.977 280.218C310.916 280.061 310.846 279.901 310.71 279.795C310.56 279.673 310.354 279.654 310.157 279.64C309.332 279.575 308.462 279.511 307.714 279.837C306.585 280.332 305.947 281.697 306.164 282.937C306.188 283.055 306.217 283.187 306.287 283.272C306.39 283.406 306.559 283.461 306.703 283.548C307.103 283.785 307.341 284.227 307.713 284.504C308.661 285.206 310.291 284.864 310.984 284.018C311.8 283.035 311.414 281.343 310.968 280.214L310.977 280.218Z" fill="white"/>
<path d="M309.372 279.528C309.203 279.623 309.031 279.727 308.927 279.895C308.812 280.09 308.821 280.342 308.83 280.571C308.885 281.565 308.96 282.61 309.465 283.475C310.225 284.768 311.915 285.357 313.316 284.953C313.448 284.917 313.589 284.863 313.696 284.761C313.832 284.619 313.877 284.414 313.945 284.23C314.152 283.722 314.629 283.38 314.889 282.897C315.543 281.668 314.885 279.765 313.787 279.038C312.508 278.185 310.613 278.847 309.372 279.528Z" fill="white"/>
<path d="M313.631 276.439C313.434 276.425 313.234 276.419 313.056 276.51C312.853 276.611 312.73 276.824 312.623 277.022C312.145 277.89 311.656 278.808 311.643 279.812C311.621 281.309 312.757 282.72 314.177 283.142C314.319 283.185 314.464 283.22 314.597 283.183C314.786 283.141 314.935 282.993 315.093 282.872C315.537 282.558 316.127 282.527 316.604 282.26C317.811 281.585 318.246 279.621 317.683 278.418C317.029 277.001 315.05 276.539 313.634 276.43L313.631 276.439Z" fill="white"/>
<path d="M275.657 271.178C276.63 287.838 292.52 299.895 307.614 302.529C317.622 304.271 333.774 301.7 338.161 290.824C339.342 287.91 334.788 286.079 333.61 289.008C330.105 297.683 315.672 298.953 308.081 297.622C294.953 295.315 281.279 284.921 280.447 270.491C280.262 267.312 275.467 268.021 275.643 271.18L275.657 271.178Z" fill="white"/>
<path d="M302.832 250.793L302.823 250.789C300.999 249.956 298.882 250.771 298.095 252.61L296.293 256.821C295.506 258.66 296.347 260.826 298.172 261.659L298.181 261.663C300.005 262.496 302.122 261.68 302.909 259.842L304.711 255.63C305.498 253.792 304.657 251.626 302.832 250.793Z" fill="white"/>
<path d="M329.387 262.916L329.378 262.911C327.553 262.079 325.436 262.894 324.65 264.733L322.848 268.944C322.061 270.783 322.902 272.948 324.726 273.781L324.735 273.785C326.56 274.618 328.677 273.803 329.464 271.964L331.266 267.753C332.053 265.914 331.211 263.748 329.387 262.916Z" fill="white"/>
</g>
</g>
<defs>
<filter id="filter0_b_2046_59037" x="162.741" y="-96.729" width="296.235" height="301.825" filterUnits="userSpaceOnUse" color-interpolation-filters="sRGB">
<feFlood flood-opacity="0" result="BackgroundImageFix"/>
<feGaussianBlur in="BackgroundImageFix" stdDeviation="42.5"/>
<feComposite in2="SourceAlpha" operator="in" result="effect1_backgroundBlur_2046_59037"/>
<feBlend mode="normal" in="SourceGraphic" in2="effect1_backgroundBlur_2046_59037" result="shape"/>
</filter>
<filter id="filter1_b_2046_59037" x="-43.528" y="-54.5278" width="292.753" height="299.613" filterUnits="userSpaceOnUse" color-interpolation-filters="sRGB">
<feFlood flood-opacity="0" result="BackgroundImageFix"/>
<feGaussianBlur in="BackgroundImageFix" stdDeviation="42.5"/>
<feComposite in2="SourceAlpha" operator="in" result="effect1_backgroundBlur_2046_59037"/>
<feBlend mode="normal" in="SourceGraphic" in2="effect1_backgroundBlur_2046_59037" result="shape"/>
</filter>
<filter id="filter2_b_2046_59037" x="-83.995" y="145.188" width="269.787" height="272.914" filterUnits="userSpaceOnUse" color-interpolation-filters="sRGB">
<feFlood flood-opacity="0" result="BackgroundImageFix"/>
<feGaussianBlur in="BackgroundImageFix" stdDeviation="39.2868"/>
<feComposite in2="SourceAlpha" operator="in" result="effect1_backgroundBlur_2046_59037"/>
<feBlend mode="normal" in="SourceGraphic" in2="effect1_backgroundBlur_2046_59037" result="shape"/>
</filter>
<filter id="filter3_b_2046_59037" x="159.472" y="129.472" width="292.753" height="299.613" filterUnits="userSpaceOnUse" color-interpolation-filters="sRGB">
<feFlood flood-opacity="0" result="BackgroundImageFix"/>
<feGaussianBlur in="BackgroundImageFix" stdDeviation="42.5"/>
<feComposite in2="SourceAlpha" operator="in" result="effect1_backgroundBlur_2046_59037"/>
<feBlend mode="normal" in="SourceGraphic" in2="effect1_backgroundBlur_2046_59037" result="shape"/>
</filter>
<clipPath id="clip0_2046_59037">
<rect width="353" height="400" rx="14" fill="white"/>
</clipPath>
</defs>
</svg>
